<svg width="239.23999633789063px" height="120.8px" xmlns="http://www.w3.org/2000/svg" viewBox="130.3800018310547 14.600000000000001 239.23999633789063 120.8" style="background: rgba(0, 0, 0, 0);" preserveAspectRatio="xMidYMid"><defs><filter id="editing-raise" x="-100%" y="-100%" width="300%" height="300%"><feFlood flood-color="#ccc" result="flood-surface"></feFlood><feFlood flood-color="#777" result="flood-extrude"></feFlood><feMorphology operator="erode" in="SourceAlpha" radius="1" result="erode"></feMorphology><feConvolveMatrix in="erode" result="shadow" order="11,8" divisor="1" kernelMatrix="0 0 0 1 1 1 1 1 0 0 0 0 0 1 0 0 0 0 0 1 0 0 0 0 1 0 0 0 0 0 1 0 0 0 0 1 0 0 0 0 0 1 0 0 0 0 1 0 0 0 0 0 1 0 0 0 0 0 1 0 0 0 1 0 0 0 0 0 0 1 1 0 1 1 0 0 0 0 0 0 0 0 1 0 0 0 0 0"></feConvolveMatrix><feOffset dx="0" dy="4" in="shadow" result="offset"></feOffset><feGaussianBlur in="offset" stdDeviation="0.2" result="blur"></feGaussianBlur><feComposite operator="in" in="flood-extrude" in2="blur" result="extrude"></feComposite><feMorphology operator="erode" in="SourceAlpha" radius="1" result="erode2"></feMorphology><feConvolveMatrix in="erode2" result="out" order="4,4" divisor="1" kernelMatrix="0 1 1 0 1 0 0 1 1 0 0 1 0 1 1 0 "></feConvolveMatrix><feComposite operator="in" in="flood-surface" in2="out" result="text"></feComposite><feMerge><feMergeNode in="extrude"></feMergeNode><feMergeNode in="text"></feMergeNode></feMerge></filter></defs><g filter="url(#editing-raise)"><g transform="translate(170.450021982193, 97.14499855041504)"><path d="M14.21 0L0.51 0L8.32-42.05L8.32-42.05Q14.66-42.75 23.90-42.75L23.90-42.75L23.90-42.75Q33.15-42.75 37.44-40.06L37.44-40.06L37.44-40.06Q41.73-37.38 41.73-31.97L41.73-31.97L41.73-31.97Q41.73-26.56 38.94-23.17L38.94-23.17L38.94-23.17Q36.16-19.78 31.36-18.69L31.36-18.69L31.36-18.69Q32.45-13.38 34.94-9.09L34.94-9.09L34.94-9.09Q37.25-5.06 39.94-3.78L39.94-3.78L39.94-3.78Q38.98-1.09 37.02 0.10L37.02 0.10L37.02 0.10Q35.07 1.28 32.29 1.28L32.29 1.28L32.29 1.28Q29.50 1.28 27.33-0.35L27.33-0.35L27.33-0.35Q25.15-1.98 23.42-4.99L23.42-4.99L23.42-4.99Q19.78-11.52 19.39-21.82L19.39-21.82L19.84-21.82L19.84-21.82Q24.58-21.95 26.94-24.42L26.94-24.42L26.94-24.42Q29.31-26.88 29.31-32.06L29.31-32.06L29.31-32.06Q29.31-38.53 23.87-38.78L23.87-38.78L22.46-38.78L22.46-38.78Q21.89-38.78 21.57-38.72L21.57-38.72L14.21 0ZM72-9.86L72-9.86L72-9.86Q73.22-8.32 73.22-5.82L73.22-5.82L73.22-5.82Q73.22-2.37 70.66-0.54L70.66-0.54L70.66-0.54Q68.10 1.28 64.06 1.28L64.06 1.28L64.06 1.28Q61.76 1.28 58.24 0.77L58.24 0.77L58.24 0.77Q51.33-0.32 49.22-0.32L49.22-0.32L49.22-0.32Q47.10-0.32 46.27-0.22L46.27-0.22L46.27-0.22Q45.44-0.13 44.10 0L44.10 0L51.97-42.24L79.55-42.24L79.55-42.24Q79.55-38.34 77.66-36.29L77.66-36.29L77.66-36.29Q75.78-34.24 72.06-34.24L72.06-34.24L72.06-34.24Q68.35-34.24 64.58-35.97L64.58-35.97L62.59-24.77L73.98-24.77L73.98-24.77Q73.98-21.38 72.32-19.49L72.32-19.49L72.32-19.49Q70.66-17.60 67.87-17.60L67.87-17.60L67.87-17.60Q65.09-17.60 63.36-18.24L63.36-18.24L63.36-18.24Q61.63-18.88 61.44-19.07L61.44-19.07L59.14-6.98L59.14-6.98Q60.67-6.78 63.55-6.78L63.55-6.78L63.55-6.78Q68.48-6.78 72-9.86ZM120.64-26.56L120.64-26.56L120.64-26.56Q120.64 0.70 91.07 0.70L91.07 0.70L91.07 0.70Q86.34 0.70 78.53-0.45L78.53-0.45L85.70-38.27L85.70-38.27Q86.21-40.83 86.53-42.30L86.53-42.30L86.53-42.30Q96.26-43.01 100.58-43.01L100.58-43.01L100.58-43.01Q104.90-43.01 108.86-42.11L108.86-42.11L108.86-42.11Q112.83-41.22 115.46-39.23L115.46-39.23L115.46-39.23Q120.64-35.33 120.64-26.56ZM107.46-28.93L107.46-28.93L107.46-28.93Q107.46-38.46 100.61-38.46L100.61-38.46L99.97-38.46L99.97-38.46Q99.65-38.46 99.33-38.40L99.33-38.40L92.74-4.03L92.74-4.03Q92.99-3.90 93.25-3.90L93.25-3.90L93.76-3.90L93.76-3.90Q96.13-3.90 98.59-5.38L98.59-5.38L98.59-5.38Q101.06-6.85 102.98-9.86L102.98-9.86L102.98-9.86Q107.46-16.83 107.46-28.93ZM151.55 1.28L151.55 1.28L151.55 1.28Q143.36 1.28 142.59-10.37L142.59-10.37L131.58-10.37L131.58-10.37Q130.30-7.42 129.41-4.86L129.41-4.86L127.74 0L118.78 0L138.94-42.24L152.70-42.24L155.39-11.14L155.39-11.14Q156.03-4.42 158.59-2.43L158.59-2.43L158.59-2.43Q156.74 1.28 151.55 1.28ZM137.09-23.17L133.57-15.04L142.40-15.04L141.63-31.49L141.63-33.22L137.09-23.17Z"></path></g></g><style>text {
  font-size: 64px;
  font-family: Arial Black;
  dominant-baseline: central;
  text-anchor: middle;
}</style></svg>